<svg width="23" height="23" viewBox="0 0 23 23" fill="none" xmlns="http://www.w3.org/2000/svg">
<path d="M23 11.5C23 13.7745 22.3255 15.9979 21.0619 17.8891C19.7983 19.7802 18.0022 21.2542 15.9009 22.1246C13.7995 22.995 11.4872 23.2228 9.25646 22.779C7.02568 22.3353 4.97658 21.24 3.36828 19.6317C1.75997 18.0234 0.664704 15.9743 0.220974 13.7435C-0.222756 11.5128 0.00498276 9.20049 0.87539 7.09914C1.7458 4.99779 3.21978 3.20174 5.11095 1.9381C7.00211 0.674463 9.22552 0 11.5 0C13.0102 0 14.5056 0.297456 15.9009 0.875385C17.2961 1.45331 18.5639 2.3004 19.6317 3.36827C20.6996 4.43614 21.5467 5.7039 22.1246 7.09914C22.7025 8.49438 23 9.9898 23 11.5ZM6.65423 6.54238C6.65423 6.23726 6.53302 5.94464 6.31727 5.7289C6.10153 5.51315 5.80891 5.39194 5.50379 5.39194H5.50089C5.20304 5.40253 4.92092 5.52829 4.71396 5.74275C4.50699 5.95721 4.39132 6.24361 4.39132 6.54165C4.39132 6.83969 4.50699 7.12609 4.71396 7.34055C4.92092 7.555 5.20304 7.68077 5.50089 7.69136H5.50379C5.80866 7.69136 6.10105 7.57035 6.31676 7.35492C6.53247 7.13948 6.65384 6.84724 6.65423 6.54238ZM6.65423 11.5901C6.65384 11.2852 6.53247 10.9929 6.31676 10.7775C6.10105 10.5621 5.80866 10.4411 5.50379 10.4411H5.50089C5.20304 10.4517 4.92092 10.5774 4.71396 10.7919C4.50699 11.0063 4.39132 11.2927 4.39132 11.5908C4.39132 11.8888 4.50699 12.1752 4.71396 12.3897C4.92092 12.6041 5.20304 12.7299 5.50089 12.7405H5.50379C5.80891 12.7405 6.10153 12.6193 6.31727 12.4035C6.53302 12.1878 6.65423 11.8952 6.65423 11.5901ZM6.65423 16.6392C6.65384 16.3343 6.53247 16.0421 6.31676 15.8266C6.10105 15.6112 5.80866 15.4902 5.50379 15.4902H5.50089C5.34647 15.4847 5.19252 15.5104 5.04824 15.5657C4.90396 15.621 4.7723 15.7048 4.66112 15.8121C4.54993 15.9194 4.4615 16.048 4.4011 16.1902C4.34071 16.3325 4.30958 16.4854 4.30958 16.6399C4.30958 16.7944 4.34071 16.9474 4.4011 17.0896C4.4615 17.2318 4.54993 17.3604 4.66112 17.4677C4.7723 17.575 4.90396 17.6588 5.04824 17.7141C5.19252 17.7694 5.34647 17.7951 5.50089 17.7896H5.50379C5.80891 17.7896 6.10153 17.6684 6.31727 17.4527C6.53302 17.2369 6.65423 16.9443 6.65423 16.6392ZM18.6902 6.54238C18.6898 6.23751 18.5685 5.94527 18.3528 5.72983C18.137 5.5144 17.8447 5.39339 17.5398 5.39339H9.20785C9.05343 5.3879 8.89948 5.41358 8.7552 5.46888C8.61092 5.52419 8.47926 5.60799 8.36808 5.7153C8.25689 5.8226 8.16846 5.9512 8.10806 6.09342C8.04767 6.23565 8.01654 6.38858 8.01654 6.5431C8.01654 6.69762 8.04767 6.85055 8.10806 6.99278C8.16846 7.135 8.25689 7.2636 8.36808 7.37091C8.47926 7.47821 8.61092 7.56201 8.7552 7.61732C8.89948 7.67263 9.05343 7.6983 9.20785 7.69281H17.5398C17.8447 7.69281 18.137 7.57181 18.3528 7.35637C18.5685 7.14094 18.6898 6.84724 18.6902 6.54238ZM18.6902 11.5915C18.6898 11.2866 18.5685 10.9944 18.3528 10.779C18.137 10.5635 17.8447 10.4425 17.5398 10.4425H9.20785C9.05343 10.437 8.89948 10.4627 8.7552 10.518C8.61092 10.5733 8.47926 10.6571 8.36808 10.7644C8.25689 10.8717 8.16846 11.0003 8.10806 11.1426C8.04767 11.2848 8.01654 11.4377 8.01654 11.5922C8.01654 11.7468 8.04767 11.8997 8.10806 12.0419C8.16846 12.1841 8.25689 12.3127 8.36808 12.42C8.47926 12.5273 8.61092 12.6111 8.7552 12.6665C8.89948 12.7218 9.05343 12.7474 9.20785 12.7419H17.5398C17.6909 12.7419 17.8405 12.7122 17.98 12.6544C18.1196 12.5966 18.2464 12.5118 18.3533 12.405C18.4601 12.2982 18.5448 12.1713 18.6027 12.0318C18.6605 11.8922 18.6902 11.7426 18.6902 11.5915ZM18.6902 16.6406C18.6898 16.3358 18.5685 16.0435 18.3528 15.8281C18.137 15.6127 17.8447 15.4917 17.5398 15.4917H9.20785C9.05343 15.4862 8.89948 15.5118 8.7552 15.5672C8.61092 15.6225 8.47926 15.7063 8.36808 15.8136C8.25689 15.9209 8.16846 16.0495 8.10806 16.1917C8.04767 16.3339 8.01654 16.4869 8.01654 16.6414C8.01654 16.7959 8.04767 16.9488 8.10806 17.091C8.16846 17.2333 8.25689 17.3619 8.36808 17.4692C8.47926 17.5765 8.61092 17.6603 8.7552 17.7156C8.89948 17.7709 9.05343 17.7966 9.20785 17.7911H17.5398C17.6909 17.7911 17.8405 17.7613 17.98 17.7035C18.1196 17.6457 18.2464 17.561 18.3533 17.4541C18.4601 17.3473 18.5448 17.2205 18.6027 17.0809C18.6605 16.9413 18.6902 16.7917 18.6902 16.6406Z" fill="white"/>
</svg>
